HIERARCHY
ROOT Hips
{
	OFFSET 0.000000 0.000000 0.000000
	CHANNELS 6 Xposition Yposition Zposition Zrotation Yrotation Xrotation 
	JOINT LeftUpLeg_virtual
	{
		OFFSET 0.000000 0.000000 0.000000
		CHANNELS 3 Zrotation Yrotation Xrotation
		JOINT LeftUpLeg
		{
			OFFSET 8.479694 -4.795517 -0.379053
			CHANNELS 3 Zrotation Yrotation Xrotation
			JOINT LeftLeg
			{
				OFFSET 0.485052 -32.551468 0.112863
				CHANNELS 3 Zrotation Yrotation Xrotation
				JOINT LeftFoot
				{
					OFFSET 0.438033 -32.635670 -3.012641
					CHANNELS 3 Zrotation Yrotation Xrotation
					JOINT LeftToeBase
					{
						OFFSET 0.970169 -13.225353 11.864223
						CHANNELS 3 Zrotation Yrotation Xrotation
						End Site
						{
							OFFSET 0.000000 0.000000 0.000000
						}
					}
				}
			}
		}
	}
	JOINT RightUpLeg_virtual
	{
		OFFSET 0.000000 0.000000 0.000000
		CHANNELS 3 Zrotation Yrotation Xrotation
		JOINT RightUpLeg
		{
			OFFSET -8.479694 -4.795517 -0.379053
			CHANNELS 3 Zrotation Yrotation Xrotation
			JOINT RightLeg
			{
				OFFSET -0.484100 -32.551483 0.112903
				CHANNELS 3 Zrotation Yrotation Xrotation
				JOINT RightFoot
				{
					OFFSET -0.438985 -32.635651 -3.012681
					CHANNELS 3 Zrotation Yrotation Xrotation
					JOINT RightToeBase
					{
						OFFSET -0.970169 -13.225354 11.864223
						CHANNELS 3 Zrotation Yrotation Xrotation
						End Site
						{
							OFFSET 0.000000 0.000000 0.000000
						}
					}
				}
			}
		}
	}
	JOINT Spine_virtual
	{
		OFFSET 0.000000 0.000000 0.000000
		CHANNELS 3 Zrotation Yrotation Xrotation
		JOINT Spine
		{
			OFFSET 0.000000 7.722015 1.166203
			CHANNELS 3 Zrotation Yrotation Xrotation
			JOINT Spine1
			{
				OFFSET 0.000000 12.024086 0.248766
				CHANNELS 3 Zrotation Yrotation Xrotation
				JOINT Spine2
				{
					OFFSET -0.000000 11.503036 -0.491240
					CHANNELS 3 Zrotation Yrotation Xrotation
					JOINT Neck_virtual
					{
						OFFSET 0.000000 0.000000 0.000000
						CHANNELS 3 Zrotation Yrotation Xrotation
						JOINT Neck
						{
							OFFSET 0.000000 18.430687 -3.123054
							CHANNELS 3 Zrotation Yrotation Xrotation
							JOINT Head
							{
								OFFSET -0.000000 9.051071 1.034021
								CHANNELS 3 Zrotation Yrotation Xrotation
								End Site
								{
									OFFSET 0.000000 0.000000 0.000000
								}
							}
						}
					}
					JOINT LeftShoulder_virtual
					{
						OFFSET 0.000000 0.000000 0.000000
						CHANNELS 3 Zrotation Yrotation Xrotation
						JOINT LeftShoulder
						{
							OFFSET 6.197824 13.665230 -4.064723
							CHANNELS 3 Zrotation Yrotation Xrotation
							JOINT LeftArm
							{
								OFFSET 7.778132 -0.187073 -1.709282
								CHANNELS 3 Zrotation Yrotation Xrotation
								JOINT LeftForeArm
								{
									OFFSET 21.954697 0.000000 -2.041093
									CHANNELS 3 Zrotation Yrotation Xrotation
									JOINT LeftHand
									{
										OFFSET 22.992908 0.000000 -0.870901
										CHANNELS 3 Zrotation Yrotation Xrotation
										End Site
										{
											OFFSET 0.000000 0.000000 0.000000
										}
									}
								}
							}
						}
					}
					JOINT RightShoulder_virtual
					{
						OFFSET 0.000000 0.000000 0.000000
						CHANNELS 3 Zrotation Yrotation Xrotation
						JOINT RightShoulder
						{
							OFFSET -6.197824 13.665230 -4.064723
							CHANNELS 3 Zrotation Yrotation Xrotation
							JOINT RightArm
							{
								OFFSET -7.778132 -0.187073 -1.709282
								CHANNELS 3 Zrotation Yrotation Xrotation
								JOINT RightForeArm
								{
									OFFSET -21.954697 0.000000 -2.041093
									CHANNELS 3 Zrotation Yrotation Xrotation
									JOINT RightHand
									{
										OFFSET -22.992908 0.000000 -0.870901
										CHANNELS 3 Zrotation Yrotation Xrotation
										End Site
										{
											OFFSET 0.000000 0.000000 0.000000
										}
									}
								}
							}
						}
					}
				}
			}
		}
	}
}
MOTION
Frames: 8
Frame Time: 0.033333
44.275681 79.804359 54.869133 0.182877 -57.224339 -0.319745 -6.014280 -0.093445 11.459698 0.648561 -2.055656 -25.664128 8.310627 5.979455 31.014861 -2.396609 -5.412952 -11.040402 0.000000 0.000000 0.000000 -3.335663 -0.940403 10.717014 3.443206 -3.583069 -39.295335 -0.436420 2.946636 48.673069 4.272074 12.713205 -9.634929 0.000000 0.000000 0.000000 -3.355020 1.133380 -1.148661 2.419191 2.186955 -0.687617 -0.991912 -2.500807 10.280318 -0.018235 0.020132 -0.019061 -0.950075 -1.535151 10.411847 4.442367 -4.643894 0.872552 0.000000 0.000000 0.000000 0.298185 -1.336414 7.082045 -4.741546 -5.451566 2.047741 -48.696865 -2.576788 3.727524 -108.271981 -85.293517 130.452652 0.000000 0.000000 0.000000 -3.447570 0.544163 6.318818 22.563607 2.574507 2.239565 42.827827 19.029776 -12.262815 -173.776268 73.136689 -178.935069 0.000000 0.000000 0.000000 
43.166126 79.702751 55.727024 0.229472 -57.888046 -0.282844 -6.168357 -0.111276 11.436778 0.551743 -1.461516 -24.435895 8.332055 6.241654 31.232290 -2.238296 -5.494501 -12.418947 0.000000 0.000000 0.000000 -3.265940 -1.132033 10.601479 4.379978 -3.353573 -40.785833 -0.704782 2.925176 42.159250 4.753105 12.275418 -8.072445 0.000000 0.000000 0.000000 -3.456350 1.168614 -1.042545 2.538873 2.417403 -0.637923 -0.964114 -2.690069 10.227914 0.034497 -0.076049 -0.048453 -0.917587 -1.703256 10.391572 4.752392 -4.575917 0.714224 0.000000 0.000000 0.000000 0.274328 -1.554289 7.151156 -4.715009 -5.482542 2.216248 -48.692214 -2.896728 3.968663 -108.200722 -85.150910 130.321922 0.000000 0.000000 0.000000 -3.437529 0.347706 6.340376 22.782197 2.345407 2.148411 42.927097 19.207202 -12.153293 -174.075485 72.538549 -179.505103 0.000000 0.000000 0.000000 
41.917103 79.504654 56.534649 0.120621 -58.714307 -0.223646 -6.064877 -0.091145 11.511090 0.384150 -0.948634 -23.315336 8.371631 6.449869 31.661875 -1.991696 -5.567417 -13.959633 0.000000 0.000000 0.000000 -3.117790 -1.118273 10.550165 5.106287 -3.056531 -42.027800 -0.936201 2.959379 36.424996 5.042779 11.784400 -6.870492 0.000000 0.000000 0.000000 -3.474811 1.110695 -0.844348 2.727073 2.527255 -0.597864 -0.968819 -2.795095 10.160287 -0.003582 -0.085958 -0.015625 -0.913650 -1.940860 10.317494 4.953244 -4.754657 0.726773 0.000000 0.000000 0.000000 0.276409 -1.616171 7.090461 -4.644801 -5.243286 2.365886 -48.689222 -3.166425 4.429958 -108.022010 -84.964603 130.122166 0.000000 0.000000 0.000000 -3.405453 0.286703 6.309915 23.128188 2.165909 2.127636 42.740482 19.591817 -12.732057 -174.104363 71.656006 -179.810399 0.000000 0.000000 0.000000 
40.539619 79.220261 57.331970 0.205478 -59.564495 -0.234142 -6.027916 -0.082035 11.612936 0.220487 -0.469785 -22.346769 8.367466 6.652431 32.307143 -1.681622 -5.705962 -15.581555 0.000000 0.000000 0.000000 -3.057076 -1.094603 10.511636 5.601078 -2.611628 -43.341771 -1.126991 2.956791 32.258078 5.146577 11.212878 -6.194027 0.000000 0.000000 0.000000 -3.455991 1.113189 -0.723839 2.838973 2.656293 -0.651458 -0.966076 -2.876670 10.044822 -0.000056 -0.048322 -0.030298 -0.902045 -1.896363 10.273899 5.292889 -4.675987 0.759527 0.000000 0.000000 0.000000 0.267231 -1.650993 7.044522 -4.611994 -4.958147 2.531389 -48.600658 -3.311756 4.866271 -108.314014 -84.599345 130.432147 0.000000 0.000000 0.000000 -3.414221 0.225572 6.290885 23.593147 1.825786 2.054073 42.209531 20.193022 -14.392013 -174.252442 70.555253 179.776767 0.000000 0.000000 0.000000 
38.935421 78.864761 58.128807 0.133290 -60.281091 -0.179273 -5.919078 -0.064639 11.801991 0.172226 -0.017332 -21.306319 8.428273 6.768949 33.228481 -1.307197 -5.910144 -17.301820 0.000000 0.000000 0.000000 -2.936020 -1.046293 10.562719 5.916297 -2.183686 -44.477932 -1.260846 2.902868 29.715356 5.069764 10.613171 -6.113513 0.000000 0.000000 0.000000 -3.349130 1.196981 -0.622194 3.071813 2.799249 -0.710555 -0.951735 -2.920888 9.917790 0.025986 0.054151 -0.009016 -0.965726 -2.161380 10.137669 5.651919 -4.877772 0.904013 0.000000 0.000000 0.000000 0.184790 -1.925408 6.938936 -4.509018 -4.692688 2.675778 -48.586260 -3.322738 5.599562 -109.086399 -84.479229 131.235091 0.000000 0.000000 0.000000 -3.528643 -0.063212 6.114717 24.120654 1.359737 1.812444 41.482795 20.857248 -16.734261 -174.227566 69.200676 179.576110 0.000000 0.000000 0.000000 
37.083260 78.477806 58.875198 0.170407 -61.060976 -0.165256 -5.863012 0.014951 11.903335 0.250751 0.334644 -20.146126 8.462631 6.815626 34.152203 -0.839017 -6.142314 -18.903211 0.000000 0.000000 0.000000 -2.950828 -0.925387 10.584150 6.153315 -1.884973 -45.289775 -1.262258 2.931825 28.616363 4.813659 10.021928 -6.447302 0.000000 0.000000 0.000000 -3.205106 1.279658 -0.647498 3.280627 2.796407 -0.823596 -1.000087 -3.069434 9.779151 0.025330 0.051707 -0.025492 -1.007745 -2.204165 10.063312 5.947610 -5.028181 1.116203 0.000000 0.000000 0.000000 0.154868 -2.030818 6.807451 -4.493746 -4.276856 2.979736 -48.575609 -3.305512 6.143418 -108.574559 -84.351006 130.789216 0.000000 0.000000 0.000000 -3.609277 -0.099540 6.011475 24.633982 0.867090 1.770710 40.452396 21.618544 -19.571671 -174.249641 67.854733 179.395998 0.000000 0.000000 0.000000 
34.952595 78.120216 59.593056 -0.061599 -61.647423 0.075818 -5.765727 -0.076164 11.937876 0.448794 0.857697 -18.593165 8.458658 6.661622 34.803950 -0.361480 -6.474058 -20.125965 0.000000 0.000000 0.000000 -2.903677 -0.805748 10.570496 6.171981 -1.748855 -45.508833 -1.254757 2.788953 28.596890 4.517167 9.434684 -6.984067 0.000000 0.000000 0.000000 -2.901388 1.378776 -0.752034 3.543062 2.691166 -0.982039 -1.059412 -3.261604 9.646592 -0.001282 0.006766 -0.013433 -1.019964 -2.559190 9.956144 6.169337 -5.055760 1.397097 0.000000 0.000000 0.000000 0.194496 -2.177564 6.677246 -4.442396 -3.954955 2.973616 -48.636309 -3.012282 6.776629 -106.742067 -84.233567 129.028694 0.000000 0.000000 0.000000 -3.664911 -0.281004 5.880625 25.010435 0.354005 1.525230 39.396763 22.033885 -21.967067 -174.562915 66.573458 179.017482 0.000000 0.000000 0.000000 
32.545979 77.841728 60.248219 -0.110780 -62.296503 0.280887 -6.035121 -0.185352 11.898833 1.101965 1.276680 -16.728921 8.368354 6.489282 35.142925 0.162574 -6.546513 -20.970202 0.000000 0.000000 0.000000 -2.882121 -0.508383 10.505749 5.902816 -1.649483 -45.099384 -1.317680 3.231244 28.657336 4.021002 8.469458 -6.117477 0.000000 0.000000 0.000000 -2.678089 1.503247 -0.943396 3.771238 2.489311 -1.242002 -1.073877 -3.441793 9.498485 0.004911 -0.003519 0.015144 -1.091341 -2.677528 9.876251 6.407167 -5.144432 1.659444 0.000000 0.000000 0.000000 0.134980 -2.261559 6.561624 -4.444322 -3.540998 3.167901 -48.835569 -2.868500 7.350746 -104.592148 -84.167226 126.956414 0.000000 0.000000 0.000000 -3.783874 -0.354284 5.775178 25.277116 -0.110623 1.404214 38.443641 22.246017 -23.679706 -174.995881 65.412845 178.624992 0.000000 0.000000 0.000000 
